# Blender 4.1.1
# www.blender.org
mtllib enemybatu.mtl
o 立方体
v 0.630724 -0.023979 -1.414042
v 0.809870 -0.236084 -1.414042
v 0.630724 -0.023979 -1.498245
v 0.809870 -0.236084 -1.498245
v -0.834982 -1.261925 -1.414042
v -0.655836 -1.474031 -1.414042
v -0.834982 -1.261925 -1.498245
v -0.655836 -1.474031 -1.498245
v -0.856396 -0.272134 -1.414042
v -0.686591 -0.052479 -1.414042
v -0.856396 -0.272134 -1.498245
v -0.686591 -0.052479 -1.498245
v 0.661479 -1.445531 -1.414042
v 0.831284 -1.225875 -1.414042
v 0.661479 -1.445531 -1.498245
v 0.831284 -1.225875 -1.498245
vn 0.7640 0.6453 -0.0000
vn -0.0000 -0.0000 -1.0000
vn -0.7640 -0.6453 -0.0000
vn -0.0000 -0.0000 1.0000
vn -0.6453 0.7640 -0.0000
vn 0.6453 -0.7640 -0.0000
vn -0.7912 0.6116 -0.0000
vn 0.7912 -0.6116 -0.0000
vn -0.6116 -0.7912 -0.0000
vn 0.6116 0.7912 -0.0000
vt 0.625000 0.000000
vt 0.375000 0.250000
vt 0.375000 0.000000
vt 0.625000 0.250000
vt 0.375000 0.500000
vt 0.625000 0.500000
vt 0.375000 0.750000
vt 0.625000 1.000000
vt 0.375000 1.000000
vt 0.125000 0.750000
vt 0.125000 0.500000
vt 0.875000 0.500000
vt 0.625000 0.750000
vt 0.875000 0.750000
s 0
f 2/1/1 3/2/1 1/3/1
f 4/4/2 7/5/2 3/2/2
f 8/6/3 5/7/3 7/5/3
f 5/7/4 2/8/4 1/9/4
f 7/5/5 1/10/5 3/11/5
f 4/12/6 6/13/6 8/6/6
f 10/1/7 11/2/7 9/3/7
f 12/4/2 15/5/2 11/2/2
f 16/6/8 13/7/8 15/5/8
f 13/7/4 10/8/4 9/9/4
f 15/5/9 9/10/9 11/11/9
f 12/12/10 14/13/10 16/6/10
f 2/1/1 4/4/1 3/2/1
f 4/4/2 8/6/2 7/5/2
f 8/6/3 6/13/3 5/7/3
f 5/7/4 6/13/4 2/8/4
f 7/5/5 5/7/5 1/10/5
f 4/12/6 2/14/6 6/13/6
f 10/1/7 12/4/7 11/2/7
f 12/4/2 16/6/2 15/5/2
f 16/6/8 14/13/8 13/7/8
f 13/7/4 14/13/4 10/8/4
f 15/5/9 13/7/9 9/10/9
f 12/12/10 10/14/10 14/13/10
